<?xml version="1.0" standalone="no"?>
<!DOCTYPE svg PUBLIC "-//W3C//DTD SVG 20010904//EN"
 "http://www.w3.org/TR/2001/REC-SVG-20010904/DTD/svg10.dtd">
<svg version="1.0" xmlns="http://www.w3.org/2000/svg"
 width="219.000000pt" height="219.000000pt" viewBox="0 0 219.000000 219.000000"
 preserveAspectRatio="xMidYMid meet">
<metadata>
Created by potrace 1.11, written by Peter Selinger 2001-2013
</metadata>
<g transform="translate(0.000000,219.000000) scale(0.100000,-0.100000)"
fill="#000000" stroke="none">
<path d="M1084 2061 c-5 -4 -90 -50 -189 -101 -99 -51 -220 -114 -270 -140
-49 -26 -153 -80 -230 -120 -295 -153 -370 -193 -379 -201 -5 -4 -9 -225 -8
-491 l0 -483 136 -3 136 -3 1 33 c0 18 1 205 1 416 l1 382 51 29 c28 16 114
61 191 101 203 105 442 229 504 262 65 34 71 34 124 4 23 -13 107 -57 187 -98
390 -202 488 -253 525 -274 l40 -22 2 -589 c2 -323 3 -600 3 -615 l0 -28 135
0 c133 0 135 0 136 23 6 174 0 1350 -7 1356 -9 8 -86 49 -389 206 -82 43 -181
94 -220 115 -38 21 -155 81 -260 135 -104 54 -195 102 -201 106 -6 5 -15 5
-20 0z"/>
<path d="M1045 1510 c-27 -14 -135 -71 -240 -125 -104 -54 -224 -116 -266
-138 l-76 -39 1 -407 1 -406 138 -1 137 -2 0 338 0 338 28 11 c15 5 94 46 177
90 l150 79 135 -70 c74 -39 154 -81 178 -95 l42 -24 0 -170 0 -170 137 3 138
3 0 242 0 241 -70 36 c-95 49 -360 187 -470 245 l-90 48 -50 -27z"/>
<path d="M1450 486 l0 -94 138 0 137 1 0 91 0 91 -138 3 -137 2 0 -94z"/>
<path d="M13 393 c-6 -2 -9 -209 -4 -265 1 -5 62 -8 136 -8 101 0 135 3 136
13 1 17 1 228 0 247 -1 13 -22 15 -131 15 -71 0 -133 -1 -137 -2z"/>
</g>
</svg>
