<?xml version="1.0" encoding="utf-8"?>
<!-- Generator: Adobe Illustrator 24.1.0, SVG Export Plug-In . SVG Version: 6.00 Build 0)  -->
<svg version="1.1" id="Layer_1" xmlns="http://www.w3.org/2000/svg" xmlns:xlink="http://www.w3.org/1999/xlink" x="0px" y="0px"
	 viewBox="0 0 1167.23 225.45" style="enable-background:new 0 0 1167.23 225.45;" xml:space="preserve">
<style type="text/css">
	.st0{fill:#FFFFFF;}
</style>
<g>
	<g>
		<path class="st0" d="M332.18,169.89h-45.03l-8.37,20.69h-30.73l47.01-106.49h29.67l47.16,106.49h-31.34L332.18,169.89z
			 M323.36,147.68l-13.69-34.08l-13.69,34.08H323.36z"/>
		<path class="st0" d="M489.03,107.97h-32.71V84.09h95.39v23.88h-32.56v82.61h-30.12V107.97z"/>
		<path class="st0" d="M676.07,185.56c-8.98-4.77-16.03-11.36-21.15-19.78c-5.12-8.42-7.68-17.9-7.68-28.45
			c0-10.55,2.56-20.03,7.68-28.45c5.12-8.41,12.17-15.01,21.15-19.78c8.98-4.76,19.09-7.15,30.35-7.15
			c11.26,0,21.38,2.39,30.35,7.15c8.98,4.77,16.03,11.36,21.15,19.78c5.12,8.42,7.68,17.9,7.68,28.45c0,10.55-2.56,20.03-7.68,28.45
			c-5.12,8.42-12.17,15.01-21.15,19.78c-8.97,4.77-19.09,7.15-30.35,7.15C695.16,192.71,685.05,190.33,676.07,185.56z
			 M721.03,163.96c4.36-2.54,7.81-6.11,10.34-10.73c2.53-4.61,3.8-9.91,3.8-15.9c0-5.98-1.27-11.28-3.8-15.9
			c-2.54-4.61-5.99-8.19-10.34-10.73c-4.36-2.53-9.23-3.8-14.61-3.8c-5.38,0-10.25,1.27-14.6,3.8c-4.36,2.54-7.81,6.11-10.35,10.73
			c-2.54,4.62-3.8,9.92-3.8,15.9c0,5.99,1.27,11.28,3.8,15.9c2.53,4.62,5.98,8.19,10.35,10.73c4.36,2.54,9.23,3.8,14.6,3.8
			C711.8,167.76,716.67,166.49,721.03,163.96z"/>
		<path class="st0" d="M884.95,179.78c-8.77-8.62-13.16-20.84-13.16-36.66V84.09h30.12v58.11c0,17.04,6.75,25.56,20.23,25.56
			c13.39,0,20.08-8.52,20.08-25.56V84.09h29.67v59.03c0,15.82-4.39,28.04-13.16,36.66c-8.77,8.62-21.07,12.93-36.89,12.93
			C906.02,192.71,893.72,188.4,884.95,179.78z"/>
		<path class="st0" d="M1104.55,107.97h-32.71V84.09h95.38v23.88h-32.56v82.61h-30.12V107.97z"/>
	</g>
	<g>
		<rect x="123.89" y="166.65" class="st0" width="23.54" height="17.53"/>
		<g>
			<rect y="184.18" class="st0" width="23.54" height="25.62"/>
			<g>
				<polygon class="st0" points="93.33,25.28 186.66,79.17 186.66,170.83 186.66,171.72 186.66,209.8 163.17,209.8 163.17,170.83 
					163.17,165.05 163.17,92.73 93.33,52.41 23.49,92.73 23.49,171.72 0,171.72 0,79.17 				"/>
			</g>
		</g>
		<polygon class="st0" points="93.33,75.59 147.43,106.82 147.43,152.86 123.94,152.86 123.94,120.38 93.33,102.71 62.73,120.38 
			62.73,144.09 62.73,151.43 62.73,184.18 39.24,184.18 39.24,152.86 39.24,151.43 39.24,106.82 		"/>
	</g>
</g>
</svg>
